# xmcd
#
# Track frame offsets: 
#        150
#        15005
#        36520
#        58650
#        71975
#        83840
#        97422
#        113042
#        128572
#        144367
#        160375
#        191152
#        205232
#        227730
#        241355
#        259827
#        278567
#        290997
#        312847
#
# Disc length: 4329 seconds
#
# Revision: 4
# Processed by: cddbd v1.5.2PL0 Copyright (c) Steve Scherf et al.
# Submitted via: ExactAudioCopyFreeDBPlugin 1.0
#
DISCID=1c10e713
DTITLE=The Johnny Otis Show - The Perfect Blues Collection [disc 17] T
DTITLE=he Johnny Otis Show^ Live at Monterey!
DYEAR=2011
DGENRE=Blues
TTITLE0=Willie and the Hand Jive
TTITLE1=Cry Me a River Blues
TTITLE2=Cleanhead's Blues
TTITLE3=I Got a Gal
TTITLE4=Since I Met You Baby
TTITLE5=Baby, You Don't Know
TTITLE6=Preacher's Blues
TTITLE7=Good Rockin' Tonight
TTITLE8=The Time Machine
TTITLE9=Margie's Boogie
TTITLE10=Little Esther's Blues [Medley]
TTITLE11=Kidney Stew
TTITLE12=The Things I Used to Do
TTITLE13=R.M. Blues
TTITLE14=Shuggie's Boogie
TTITLE15=You Look Better Out
TTITLE16=Goin' Back to L. A.
TTITLE17=Plastic Man
TTITLE18=Boogie Woogie Bye Bye
EXTD=
EXTT0=
EXTT1=
EXTT2=
EXTT3=
EXTT4=
EXTT5=
EXTT6=
EXTT7=
EXTT8=
EXTT9=
EXTT10=
EXTT11=
EXTT12=
EXTT13=
EXTT14=
EXTT15=
EXTT16=
EXTT17=
EXTT18=
PLAYORDER=
